#!OML:ASF F:\VICON\USERDATA\INSTALL\rory3\rory3.ASF
:FULLY-SPECIFIED
:DEGREES
166
root 4.75696 18.1958 1.18952 -4.8355 -2.15837 -5.89967
lowerback 9.89221 0.501691 3.26598
upperback 0.674903 1.15972 2.55815
thorax -4.83739 0.528635 0.668025
lowerneck -15.9638 -3.19487 -1.84865
upperneck 19.4085 -4.21118 1.14607
head 8.76536 -1.99569 0.180839
rclavicle -1.6715e-014 2.13694e-014
rhumerus -29.5232 -21.7527 -77.3071
rradius 22.3322
rwrist 6.53916
rhand -16.595 23.3348
rfingers 7.12502
rthumb 9.6261 -6.42523
lclavicle -1.6715e-014 2.13694e-014
lhumerus -35.4015 -1.62399 83.0287
lradius 27.5988
lwrist 11.0498
lhand -30.3497 13.9261
lfingers 7.12502
lthumb -3.65519 43.8745
rfemur -4.91006 7.49486 33.2647
rtibia 27.9916
rfoot -13.4619 -6.73873
rtoes 8.58358
lfemur -22.0534 3.37553 -13.4471
ltibia 69.5843
lfoot -1.66484 -5.25049
ltoes -8.65115
167
root 4.75899 18.2076 1.3548 -4.79882 -2.52745 -6.10294
lowerback 10.0944 0.693257 3.60779
upperback 0.712885 1.45877 2.50063
thorax -4.89755 0.667542 0.37249
lowerneck -16.3636 -3.21702 -1.72972
upperneck 19.2873 -4.2589 1.13106
head 8.79388 -2.00845 0.144824
rclavicle -1.43078e-014 -8.94531e-015
rhumerus -28.9985 -20.8407 -77.9146
rradius 22.897
rwrist 5.77862
rhand -16.8506 28.8231
rfingers 7.12502
rthumb 9.37953 -0.94821
lclavicle -1.43078e-014 -8.94531e-015
lhumerus -35.3581 -0.538634 82.2637
lradius 28.2097
lwrist 7.49891
lhand -27.2986 24.4044
lfingers 7.12502
lthumb -0.708517 54.3829
rfemur -4.34426 7.70224 33.5791
rtibia 28.0689
rfoot -14.1541 -6.7319
rtoes 7.88334
lfemur -22.7242 3.48556 -13.2105
ltibia 68.4418
lfoot -2.06378 -4.73649
ltoes -9.5498
168
root 4.76803 18.198 1.51733 -4.7482 -2.69816 -6.1495
lowerback 10.128 0.805645 3.80274
upperback 0.784988 1.62465 2.42251
thorax -4.82993 0.74587 0.158377
lowerneck -16.5657 -3.24594 -1.66603
upperneck 19.1416 -4.30414 1.1112
head 8.77925 -2.02636 0.119951
rclavicle -6.80837e-015 8.10048e-015
rhumerus -28.1378 -20.3482 -78.3979
rradius 22.6613
rwrist 4.85298
rhand -15.7847 21.8477
rfingers 7.12502
rthumb 10.4079 -7.87473
lclavicle -6.80837e-015 8.10048e-015
lhumerus -35.184 0.167549 81.9514
lradius 27.9643
lwrist 7.08864
lhand -25.7776 25.1998
lfingers 7.12502
lthumb 0.760526 55.1782
rfemur -3.80003 7.63305 33.6403
rtibia 28.1374
rfoot -14.8347 -6.6119
rtoes 8.59248
lfemur -23.4435 3.35067 -13.2325
ltibia 67.2035
lfoot -3.18223 -4.02977
ltoes -7.393
169
root 4.77407 18.1745 1.68084 -4.65544 -2.58521 -6.31562
lowerback 10.2306 0.785985 4.02775
upperback 0.623528 1.63673 2.40396
thorax -5.04995 0.741797 0.00868268
lowerneck -15.9866 -3.18013 -1.70456
upperneck 18.7564 -4.2225 1.19227
head 8.54544 -1.98864 0.176337
rclavicle -1.8876e-014 5.1684e-015
rhumerus -27.7217 -19.6789 -78.7812
rradius 22.8548
rwrist 4.75372
rhand -16.1182 19.41
rfingers 7.12502
rthumb 10.0861 -10.3283
lclavicle -1.8876e-014 5.1684e-015
lhumerus -35.6928 0.393484 81.9502
lradius 28.0577
lwrist 8.24677
lhand -25.9237 23.0887
lfingers 7.12502
lthumb 0.61944 53.0675
rfemur -3.23703 7.43287 33.848
rtibia 28.045
rfoot -15.2749 -6.74376
rtoes 9.28822
lfemur -24.3269 3.07417 -13.105
ltibia 65.866
lfoot -3.84892 -3.20387
ltoes -6.56819
170
root 4.78413 18.1524 1.85101 -4.5775 -2.50189 -6.48956
lowerback 10.2379 0.781611 4.37472
upperback 0.595153 1.67128 2.37818
thorax -5.07259 0.749922 -0.217676
lowerneck -16.1257 -3.16072 -1.6718
upperneck 18.7927 -4.18466 1.1122
head 8.57955 -1.97564 0.146153
rclavicle 9.67678e-015 2.65874e-015
rhumerus -27.3579 -18.6091 -79.2566
rradius 23.6048
rwrist 4.46709
rhand -16.7338 19.0407
rfingers 7.12502
rthumb 9.49218 -10.7255
lclavicle 9.67678e-015 2.65874e-015
lhumerus -36.1563 0.411314 82.0913
lradius 28.3068
lwrist 9.07531
lhand -26.1272 21.6244
lfingers 7.12502
lthumb 0.422849 51.6037
rfemur -2.65623 7.27954 34.0523
rtibia 28.0178
rfoot -15.8879 -6.83093
rtoes 9.42535
lfemur -25.0229 2.81898 -12.9752
ltibia 64.5095
lfoot -4.83681 -1.85374
ltoes -9.60561
171
root 4.79569 18.1312 2.01666 -4.45651 -2.8558 -6.6378
lowerback 10.0324 0.904498 4.68033
upperback 0.739128 1.84666 2.34485
thorax -4.78963 0.836335 -0.442887
lowerneck -16.5732 -3.13998 -1.63718
upperneck 18.9172 -4.15752 1.10239
head 8.70099 -1.95736 0.132308
rclavicle -8.79001e-015 5.71506e-015
rhumerus -26.7353 -17.434 -79.8518
rradius 24.2159
rwrist 3.45559
rhand -16.6562 17.1839
rfingers 7.12502
rthumb 9.56704 -12.5789
lclavicle -8.79001e-015 5.71506e-015
lhumerus -36.019 0.767665 82.0636
lradius 27.9191
lwrist 8.69995
lhand -26.344 22.3042
lfingers 7.12502
lthumb 0.213507 52.2838
rfemur -2.09613 7.50303 34.2603
rtibia 27.9372
rfoot -16.4509 -6.81016
rtoes 8.71697
lfemur -25.5576 2.87656 -12.8323
ltibia 63.0698
lfoot -5.40966 -1.04823
ltoes -9.48022
172
root 4.80364 18.1202 2.17793 -4.31015 -3.24015 -6.84884
lowerback 10.1433 1.02603 4.94559
upperback 0.665312 2.05032 2.36674
thorax -4.91293 0.927604 -0.599341
lowerneck -16.5838 -3.11324 -1.69151
upperneck 18.8285 -4.10313 1.09758
head 8.67305 -1.93662 0.146871
rclavicle -1.43647e-014 9.69075e-015
rhumerus -26.3618 -16.7038 -80.16
rradius 24.5602
rwrist 3.05101
rhand -16.6551 15.7809
rfingers 7.12502
rthumb 9.56815 -13.9819
lclavicle -1.43647e-014 9.69075e-015
lhumerus -36.1261 1.11012 81.9896
lradius 27.6021
lwrist 8.15774
lhand -26.0436 24.3903
lfingers 7.12502
lthumb 0.503632 54.3695
rfemur -1.51441 7.93281 34.5676
rtibia 27.7412
rfoot -16.9446 -6.93256
rtoes 8.26604
lfemur -26.0766 2.88223 -12.5802
ltibia 61.3876
lfoot -5.94871 -0.267492
ltoes -8.32136
173
root 4.80958 18.1119 2.34487 -4.14093 -3.31958 -6.96529
lowerback 10.1777 1.0907 5.10068
upperback 0.645867 2.15645 2.35099
thorax -4.94175 0.975358 -0.718072
lowerneck -16.6126 -3.14701 -1.77927
upperneck 18.4748 -4.14178 1.20192
head 8.56295 -1.95153 0.193923
rclavicle 1.36584e-014 3.66711e-014
rhumerus -25.7139 -16.1451 -80.4582
rradius 24.7976
rwrist 2.90663
rhand -16.8352 15.3427
rfingers 7.12502
rthumb 9.39435 -14.4279
lclavicle 1.36584e-014 3.66711e-014
lhumerus -36.3926 1.42163 81.9797
lradius 27.6993
lwrist 8.10713
lhand -26.0669 24.8331
lfingers 7.12502
lthumb 0.481106 54.8123
rfemur -0.934965 7.95444 34.7077
rtibia 27.52
rfoot -17.2947 -6.93873
rtoes 8.94939
lfemur -26.5968 2.67896 -12.4438
ltibia 59.4686
lfoot -6.23482 0.377879
ltoes -7.08533
174
root 4.81674 18.0996 2.51616 -3.98906 -3.30774 -6.85908
lowerback 9.95248 1.14031 5.02426
upperback 0.781937 2.18778 2.29916
thorax -4.67173 1 -0.726438
lowerneck -16.5813 -3.20737 -1.69665
upperneck 17.8697 -4.19557 1.01987
head 8.34725 -1.99366 0.118397
rclavicle 9.94972e-015 2.25372e-014
rhumerus -24.9228 -15.4222 -80.8271
rradius 25.285
rwrist 2.42937
rhand -16.6617 13.3342
rfingers 7.12502
rthumb 9.56181 -16.4288
lclavicle 9.94972e-015 2.25372e-014
lhumerus -36.4871 1.42428 82.1746
lradius 27.7982
lwrist 8.52994
lhand -27.0498 22.8495
lfingers 7.12502
lthumb -0.468163 52.8287
rfemur -0.303437 7.82374 34.5767
rtibia 27.2084
rfoot -17.5847 -6.91344
rtoes 9.41261
lfemur -27.0494 2.35684 -12.569
ltibia 57.2382
lfoot -6.24789 0.984064
ltoes -4.76717
175
root 4.82433 18.0809 2.6794 -3.81832 -3.45635 -7.04207
lowerback 9.93818 1.22307 5.218
upperback 0.8458 2.31669 2.34303
thorax -4.58497 1.0629 -0.804731
lowerneck -16.8614 -3.24539 -1.64145
upperneck 17.7024 -4.21865 0.853112
head 8.33567 -2.0171 0.0478075
rclavicle 1.54524e-014 2.85504e-014
rhumerus -24.113 -14.8345 -81.0581
rradius 25.4412
rwrist 1.97607
rhand -16.6622 12.0717
rfingers 7.12502
rthumb 9.5613 -17.6913
lclavicle 1.54524e-014 2.85504e-014
lhumerus -36.5035 1.82117 82.2203
lradius 27.7825
lwrist 8.10659
lhand -26.8844 21.377
lfingers 7.12502
lthumb -0.308406 51.3565
rfemur 0.239967 7.68927 34.7483
rtibia 26.9255
rfoot -17.9038 -6.72941
rtoes 8.84252
lfemur -27.5343 2.07382 -12.3061
ltibia 54.901
lfoot -6.22037 1.51598
ltoes -5.03826
176
root 4.82732 18.0751 2.83982 -3.59573 -3.66766 -7.23281
lowerback 10.0254 1.34354 5.33549
upperback 0.791808 2.50061 2.37678
thorax -4.67792 1.14848 -0.862756
lowerneck -17.0374 -3.23183 -1.58559
upperneck 17.6394 -4.20388 0.823182
head 8.3434 -2.00858 0.0281976
rclavicle 8.39011e-015 -2.49226e-014
rhumerus -23.5237 -14.3135 -81.2821
rradius 25.5765
rwrist 1.66497
rhand -17.3095 15.586
rfingers 7.12502
rthumb 8.9367 -14.2047
lclavicle 8.39011e-015 -2.49226e-014
lhumerus -36.6188 1.94437 82.2974
lradius 27.5936
lwrist 8.037
lhand -26.5799 21.1685
lfingers 7.12502
lthumb -0.0143677 51.1482
rfemur 0.709714 7.83727 34.9867
rtibia 26.6812
rfoot -18.3326 -6.76722
rtoes 7.44861
lfemur -27.8835 1.84694 -11.988
ltibia 52.3883
lfoot -6.24951 2.0232
ltoes -7.17344
177
root 4.83738 18.0575 3.00591 -3.30396 -3.7485 -7.33338
lowerback 9.84447 1.44638 5.53703
upperback 0.709625 2.6459 2.29046
thorax -4.64232 1.21508 -1.07965
lowerneck -16.6715 -3.20512 -1.38314
upperneck 17.203 -4.20608 0.768007
head 8.12612 -2.00635 -0.0131037
rclavicle 6.71519e-015 2.06736e-014
rhumerus -23.2691 -13.679 -81.563
rradius 26.2933
rwrist 1.13523
rhand -18.067 19.9645
rfingers 7.12502
rthumb 8.2057 -9.85618
lclavicle 6.71519e-015 2.06736e-014
lhumerus -36.6258 1.77158 82.4173
lradius 27.0498
lwrist 8.21977
lhand -27.0603 21.5424
lfingers 7.12502
lthumb -0.478282 51.5216
rfemur 1.14802 7.84467 35.0626
rtibia 26.3495
rfoot -18.7871 -6.69904
rtoes 8.10861
lfemur -28.232 1.58868 -11.8058
ltibia 49.7934
lfoot -6.47689 2.55219
ltoes -5.63093
178
root 4.84577 18.0353 3.17308 -3.0132 -3.62426 -7.39203
lowerback 9.68345 1.43478 5.65261
upperback 0.658869 2.63007 2.22182
thorax -4.59793 1.20481 -1.20896
lowerneck -16.6349 -3.19964 -1.34449
upperneck 16.9788 -4.21973 0.840783
head 8.04563 -2.00428 0.0059161
rclavicle -4.22107e-015 1.04362e-015
rhumerus -23.0547 -12.8827 -81.9244
rradius 27.3147
rwrist 0.467591
rhand -18.627 20.4843
rfingers 7.12502
rthumb 7.66518 -9.35676
lclavicle -4.22107e-015 1.04362e-015
lhumerus -36.6885 1.86326 82.4054
lradius 27.0172
lwrist 7.65141
lhand -26.5094 23.8893
lfingers 7.12502
lthumb 0.0537561 53.869
rfemur 1.67391 7.82613 35.1245
rtibia 25.9262
rfoot -19.0465 -6.76129
rtoes 8.51875
lfemur -28.5439 1.03337 -11.6407
ltibia 47.0608
lfoot -6.56988 3.13417
ltoes -2.88084
179
root 4.85478 18.0302 3.33902 -2.73421 -3.56535 -7.45321
lowerback 9.6483 1.428 5.71343
upperback 0.585152 2.62948 2.23158
thorax -4.65356 1.20074 -1.23261
lowerneck -16.8993 -3.18803 -1.46721
upperneck 17.0307 -4.18242 0.905114
head 8.11339 -1.98598 0.0467971
rclavicle 2.21893e-014 1.70955e-014
rhumerus -22.9129 -11.9981 -82.1161
rradius 28.1215
rwrist -0.0104648
rhand -18.9456 20.436
rfingers 7.12502
rthumb 7.35767 -9.41602
lclavicle 2.21893e-014 1.70955e-014
lhumerus -37.1344 2.12219 82.4445
lradius 27.9986
lwrist 6.05016
lhand -24.201 30.2858
lfingers 7.12502
lthumb 2.2832 60.2533
rfemur 2.2134 7.78835 35.1556
rtibia 25.5149
rfoot -19.2616 -6.7745
rtoes 8.85119
lfemur -28.742 0.419286 -11.4598
ltibia 44.2872
lfoot -6.38917 3.81656
ltoes -1.03909
180
root 4.86312 18.0207 3.51319 -2.4245 -3.61218 -7.57045
lowerback 9.35538 1.50326 5.77821
upperback 0.582876 2.71606 2.28718
thorax -4.48638 1.24738 -1.21179
lowerneck -16.9875 -3.17143 -1.57643
upperneck 16.773 -4.13822 0.969062
head 8.04607 -1.9663 0.091947
rclavicle -2.00648e-015 1.07841e-014
rhumerus -22.4757 -11.4299 -82.1337
rradius 28.3004
rwrist -0.111851
rhand -19.3316 21.4026
rfingers 7.12502
rthumb 6.98505 -8.46211
lclavicle -2.00648e-015 1.07841e-014
lhumerus -37.2892 2.44796 82.6159
lradius 27.408
lwrist 6.62813
lhand -26.2203 21.8022
lfingers 7.12502
lthumb 0.332927 51.7816
rfemur 2.76794 7.77204 35.2384
rtibia 25.0478
rfoot -19.3814 -6.73398
rtoes 8.79699
lfemur -28.8331 -0.025625 -11.214
ltibia 41.4802
lfoot -6.12998 4.33389
ltoes -2.42128
